<svg width="36" height="36" viewBox="0 0 36 36" fill="none" xmlns="http://www.w3.org/2000/svg">
<path d="M27 12C27 9.61305 26.0518 7.32387 24.364 5.63604C22.6761 3.94821 20.3869 3 18 3C15.6131 3 13.3239 3.94821 11.636 5.63604C9.94821 7.32387 9 9.61305 9 12C9 22.5 4.5 25.5 4.5 25.5H31.5C31.5 25.5 27 22.5 27 12Z" stroke="white" stroke-width="3.5" stroke-linecap="round" stroke-linejoin="round"/>
<path d="M20.595 31.5C20.3313 31.9546 19.9528 32.332 19.4974 32.5943C19.0419 32.8566 18.5256 32.9947 18 32.9947C17.4745 32.9947 16.9581 32.8566 16.5027 32.5943C16.0473 32.332 15.6687 31.9546 15.405 31.5" stroke="white" stroke-width="3.5" stroke-linecap="round" stroke-linejoin="round"/>
</svg>
