<svg width="36" height="36" viewBox="0 0 36 36" fill="none" xmlns="http://www.w3.org/2000/svg">
<path d="M18 33C26.2843 33 33 26.2843 33 18C33 9.71573 26.2843 3 18 3C9.71573 3 3 9.71573 3 18C3 26.2843 9.71573 33 18 33Z" stroke="white" stroke-width="3.5" stroke-linecap="round" stroke-linejoin="round"/>
<path d="M13.6351 13.5C13.9877 12.4975 14.6838 11.6522 15.6 11.1137C16.5162 10.5752 17.5934 10.3784 18.6408 10.5581C19.6883 10.7377 20.6383 11.2823 21.3227 12.0953C22.0071 12.9083 22.3817 13.9373 22.3801 15C22.3801 18 17.8801 19.5 17.8801 19.5" stroke="white" stroke-width="3.5" stroke-linecap="round" stroke-linejoin="round"/>
<path d="M18 25.5H18.015" stroke="white" stroke-width="3.5" stroke-linecap="round" stroke-linejoin="round"/>
</svg>
