<svg width="36" height="36" viewBox="0 0 36 36" fill="none" xmlns="http://www.w3.org/2000/svg">
<g clip-path="url(#clip0)">
<path d="M18 22.5C20.4853 22.5 22.5 20.4853 22.5 18C22.5 15.5147 20.4853 13.5 18 13.5C15.5147 13.5 13.5 15.5147 13.5 18C13.5 20.4853 15.5147 22.5 18 22.5Z" stroke="white" stroke-width="3.5" stroke-linecap="round" stroke-linejoin="round"/>
<path d="M29.1 22.5C28.9003 22.9524 28.8408 23.4543 28.929 23.9409C29.0172 24.4275 29.2492 24.8765 29.595 25.23L29.685 25.32C29.9639 25.5986 30.1852 25.9295 30.3362 26.2937C30.4872 26.6579 30.5649 27.0483 30.5649 27.4425C30.5649 27.8367 30.4872 28.2271 30.3362 28.5913C30.1852 28.9555 29.9639 29.2864 29.685 29.565C29.4064 29.8439 29.0755 30.0652 28.7113 30.2162C28.3471 30.3672 27.9567 30.4449 27.5625 30.4449C27.1683 30.4449 26.7779 30.3672 26.4137 30.2162C26.0495 30.0652 25.7186 29.8439 25.44 29.565L25.35 29.475C24.9965 29.1292 24.5475 28.8972 24.0609 28.809C23.5743 28.7208 23.0724 28.7803 22.62 28.98C22.1763 29.1701 21.798 29.4859 21.5315 29.8883C21.2649 30.2907 21.1219 30.7623 21.12 31.245V31.5C21.12 32.2956 20.8039 33.0587 20.2413 33.6213C19.6787 34.1839 18.9156 34.5 18.12 34.5C17.3244 34.5 16.5613 34.1839 15.9987 33.6213C15.4361 33.0587 15.12 32.2956 15.12 31.5V31.365C15.1084 30.8685 14.9477 30.387 14.6588 29.9831C14.3699 29.5791 13.9661 29.2714 13.5 29.1C13.0476 28.9003 12.5457 28.8408 12.0591 28.929C11.5725 29.0172 11.1235 29.2492 10.77 29.595L10.68 29.685C10.4014 29.9639 10.0705 30.1852 9.70632 30.3362C9.34213 30.4872 8.95175 30.5649 8.5575 30.5649C8.16325 30.5649 7.77287 30.4872 7.40868 30.3362C7.04448 30.1852 6.71362 29.9639 6.435 29.685C6.15607 29.4064 5.93479 29.0755 5.78382 28.7113C5.63285 28.3471 5.55514 27.9567 5.55514 27.5625C5.55514 27.1683 5.63285 26.7779 5.78382 26.4137C5.93479 26.0495 6.15607 25.7186 6.435 25.44L6.525 25.35C6.87081 24.9965 7.10278 24.5475 7.19101 24.0609C7.27924 23.5743 7.21967 23.0724 7.02 22.62C6.82986 22.1763 6.51413 21.798 6.1117 21.5315C5.70926 21.2649 5.23768 21.1219 4.755 21.12H4.5C3.70435 21.12 2.94129 20.8039 2.37868 20.2413C1.81607 19.6787 1.5 18.9156 1.5 18.12C1.5 17.3244 1.81607 16.5613 2.37868 15.9987C2.94129 15.4361 3.70435 15.12 4.5 15.12H4.635C5.13149 15.1084 5.61301 14.9477 6.01695 14.6588C6.42089 14.3699 6.72857 13.9661 6.9 13.5C7.09967 13.0476 7.15924 12.5457 7.07101 12.0591C6.98278 11.5725 6.75081 11.1235 6.405 10.77L6.315 10.68C6.03607 10.4014 5.81479 10.0705 5.66382 9.70632C5.51285 9.34213 5.43514 8.95175 5.43514 8.5575C5.43514 8.16325 5.51285 7.77287 5.66382 7.40868C5.81479 7.04448 6.03607 6.71362 6.315 6.435C6.59362 6.15607 6.92448 5.93479 7.28868 5.78382C7.65287 5.63285 8.04325 5.55514 8.4375 5.55514C8.83175 5.55514 9.22213 5.63285 9.58632 5.78382C9.95052 5.93479 10.2814 6.15607 10.56 6.435L10.65 6.525C11.0035 6.87081 11.4525 7.10278 11.9391 7.19101C12.4257 7.27924 12.9276 7.21967 13.38 7.02H13.5C13.9437 6.82986 14.322 6.51413 14.5885 6.1117C14.8551 5.70926 14.9981 5.23768 15 4.755V4.5C15 3.70435 15.3161 2.94129 15.8787 2.37868C16.4413 1.81607 17.2044 1.5 18 1.5C18.7956 1.5 19.5587 1.81607 20.1213 2.37868C20.6839 2.94129 21 3.70435 21 4.5V4.635C21.0019 5.11768 21.1449 5.58926 21.4115 5.9917C21.678 6.39413 22.0563 6.70986 22.5 6.9C22.9524 7.09967 23.4543 7.15924 23.9409 7.07101C24.4275 6.98278 24.8765 6.75081 25.23 6.405L25.32 6.315C25.5986 6.03607 25.9295 5.81479 26.2937 5.66382C26.6579 5.51285 27.0483 5.43514 27.4425 5.43514C27.8367 5.43514 28.2271 5.51285 28.5913 5.66382C28.9555 5.81479 29.2864 6.03607 29.565 6.315C29.8439 6.59362 30.0652 6.92448 30.2162 7.28868C30.3672 7.65287 30.4449 8.04325 30.4449 8.4375C30.4449 8.83175 30.3672 9.22213 30.2162 9.58632C30.0652 9.95052 29.8439 10.2814 29.565 10.56L29.475 10.65C29.1292 11.0035 28.8972 11.4525 28.809 11.9391C28.7208 12.4257 28.7803 12.9276 28.98 13.38V13.5C29.1701 13.9437 29.4859 14.322 29.8883 14.5885C30.2907 14.8551 30.7623 14.9981 31.245 15H31.5C32.2956 15 33.0587 15.3161 33.6213 15.8787C34.1839 16.4413 34.5 17.2044 34.5 18C34.5 18.7956 34.1839 19.5587 33.6213 20.1213C33.0587 20.6839 32.2956 21 31.5 21H31.365C30.8823 21.0019 30.4107 21.1449 30.0083 21.4115C29.6059 21.678 29.2901 22.0563 29.1 22.5V22.5Z" stroke="white" stroke-width="3.5" stroke-linecap="round" stroke-linejoin="round"/>
</g>
<defs>
<clipPath id="clip0">
<rect width="36" height="36" fill="white"/>
</clipPath>
</defs>
</svg>
