<svg width="63" height="63" viewBox="0 0 63 63" fill="none" xmlns="http://www.w3.org/2000/svg">
<path d="M46.875 20.8334C46.875 16.6894 45.2288 12.7151 42.2985 9.78483C39.3683 6.85457 35.394 5.20837 31.25 5.20837C27.106 5.20837 23.1317 6.85457 20.2015 9.78483C17.2712 12.7151 15.625 16.6894 15.625 20.8334C15.625 39.0625 7.8125 44.2709 7.8125 44.2709H54.6875C54.6875 44.2709 46.875 39.0625 46.875 20.8334Z" stroke="#DAFF44" stroke-width="5" stroke-linecap="round" stroke-linejoin="round"/>
<path d="M35.7553 54.6875C35.2974 55.4768 34.6403 56.1319 33.8496 56.5873C33.059 57.0427 32.1625 57.2824 31.2501 57.2824C30.3376 57.2824 29.4412 57.0427 28.6505 56.5873C27.8599 56.1319 27.2027 55.4768 26.7449 54.6875" stroke="#DAFF44" stroke-width="5" stroke-linecap="round" stroke-linejoin="round"/>
</svg>
