<svg width="63" height="63" viewBox="0 0 63 63" fill="none" xmlns="http://www.w3.org/2000/svg">
<path d="M54.6875 41.6667V20.8334C54.6866 19.9201 54.4455 19.023 53.9884 18.2323C53.5313 17.4415 52.8743 16.7849 52.0833 16.3282L33.8542 5.91153C33.0624 5.4544 32.1643 5.21375 31.25 5.21375C30.3357 5.21375 29.4376 5.4544 28.6458 5.91153L10.4167 16.3282C9.62568 16.7849 8.9687 17.4415 8.51162 18.2323C8.05454 19.023 7.81344 19.9201 7.8125 20.8334V41.6667C7.81344 42.5801 8.05454 43.4771 8.51162 44.2679C8.9687 45.0586 9.62568 45.7153 10.4167 46.1719L28.6458 56.5886C29.4376 57.0457 30.3357 57.2864 31.25 57.2864C32.1643 57.2864 33.0624 57.0457 33.8542 56.5886L52.0833 46.1719C52.8743 45.7153 53.5313 45.0586 53.9884 44.2679C54.4455 43.4771 54.6866 42.5801 54.6875 41.6667Z" stroke="#FC70FF" stroke-width="5" stroke-linecap="round" stroke-linejoin="round"/>
<path d="M19.5312 10.9635L31.25 17.7343L42.9688 10.9635" stroke="#FC70FF" stroke-width="5" stroke-linecap="round" stroke-linejoin="round"/>
<path d="M19.5313 51.5365V38.0208L7.8125 31.25" stroke="#FC70FF" stroke-width="5" stroke-linecap="round" stroke-linejoin="round"/>
<path d="M54.6875 31.25L42.9688 38.0208V51.5365" stroke="#FC70FF" stroke-width="5" stroke-linecap="round" stroke-linejoin="round"/>
<path d="M8.51562 18.125L31.25 31.276L53.9844 18.125" stroke="#FC70FF" stroke-width="5" stroke-linecap="round" stroke-linejoin="round"/>
<path d="M31.25 57.5V31.25" stroke="#FC70FF" stroke-width="5" stroke-linecap="round" stroke-linejoin="round"/>
</svg>
