<svg width="63" height="63" viewBox="0 0 63 63" fill="none" xmlns="http://www.w3.org/2000/svg">
<path d="M41.6666 57.2916V47.2135C41.7643 45.9717 41.5966 44.7234 41.1745 43.5515C40.7524 42.3796 40.0857 41.311 39.2187 40.4166C47.3958 39.5052 55.9896 36.4062 55.9896 22.1875C55.9889 18.5516 54.5903 15.0552 52.0833 12.4218C53.2704 9.24087 53.1865 5.72484 51.8489 2.60414C51.8489 2.60414 48.776 1.69268 41.6666 6.4583C35.6979 4.84065 29.4062 4.84065 23.4375 6.4583C16.3281 1.69268 13.2552 2.60414 13.2552 2.60414C11.9176 5.72484 11.8337 9.24087 13.0208 12.4218C10.4951 15.0747 9.09509 18.6027 9.11456 22.2656C9.11456 36.3802 17.7083 39.4791 25.8854 40.4948C25.0286 41.3801 24.3679 42.4359 23.9461 43.5935C23.5243 44.7511 23.351 45.9845 23.4375 47.2135V57.2916M23.4375 49.4791C10.4166 53.3854 10.4166 42.9687 5.20831 41.6666L23.4375 49.4791Z" stroke="#549462" stroke-width="5" stroke-linecap="round" stroke-linejoin="round"/>
</svg>
