<svg width="594" height="75" viewBox="0 0 594 75" fill="none" xmlns="http://www.w3.org/2000/svg">
<path d="M25.9135 75C20.1318 75 0 73.5547 0 44.7506V30.4004C0 1.59664 20.1318 0.15097 25.9135 0.15097C30.9722 0.15097 47.2841 1.28685 51.0005 21.3154H39.6441C37.2698 11.8171 29.5266 11.3011 25.9135 11.3011C21.5772 11.3011 11.5629 12.0236 11.5629 27.8195V47.3318C11.5629 63.1273 21.5772 63.8502 25.9135 63.8502C29.5266 63.8502 37.2698 63.3339 39.6441 53.8359H51.1037C47.2841 73.8645 30.9722 75 25.9135 75Z" fill="#222121"/>
<path d="M92.5108 52.3902C90.9623 52.5967 89.6195 52.6999 88.6905 52.6999H77.6439V73.5543H66.0814V1.59622H88.6905C94.4725 1.59622 114.604 3.5575 114.604 27.0963C114.604 39.5885 109.029 45.9893 102.834 49.293L117.288 73.5543H105.106L92.5108 52.3902ZM90.4456 41.1371C94.7819 41.1371 103.144 37.4203 103.144 27.0963C103.144 16.7722 94.7819 13.0558 90.4456 13.0558H77.6439V41.1371C77.6439 41.1371 90.4456 41.1371 90.4456 41.1371Z" fill="#222121"/>
<path d="M265.497 30.2971V56.8298H254.038V27.8195C254.038 12.0236 243.921 11.3011 239.585 11.3011C235.248 11.3011 225.234 12.0236 225.234 27.8195V73.5547H213.671V30.2971C213.671 1.49337 233.803 0.15097 239.585 0.15097C245.366 0.15097 265.497 1.49337 265.497 30.2971Z" fill="#222121"/>
<path d="M253.935 67.7731C253.935 64.5726 256.515 61.9918 259.716 61.9918C262.917 61.9918 265.498 64.5726 265.498 67.7731C265.498 70.9738 262.917 73.5547 259.716 73.5547C256.515 73.5547 253.935 70.9738 253.935 67.7731Z" fill="#5A6EF8"/>
<path d="M309.59 52.3902C308.042 52.5967 306.699 52.6999 305.77 52.6999H294.723V73.5543H283.161V1.59622H305.77C311.552 1.59622 331.683 3.5575 331.683 27.0963C331.683 39.5885 326.108 45.9893 319.914 49.293L334.368 73.5543H322.185L309.59 52.3902ZM307.525 41.1371C311.861 41.1371 320.224 37.4203 320.224 27.0963C320.224 16.7722 311.861 13.0558 307.525 13.0558H294.723V41.1371C294.723 41.1371 307.525 41.1371 307.525 41.1371Z" fill="#222121"/>
<path d="M399.58 30.2971V44.7506C399.58 73.5547 379.448 75 373.667 75C367.886 75 347.754 73.5547 347.754 44.7506V30.2971C347.754 1.49337 367.886 0.15097 373.667 0.15097C379.448 0.15097 399.58 1.49337 399.58 30.2971ZM373.667 11.3011C369.331 11.3011 359.317 12.0236 359.317 27.8195V47.2285C359.317 63.1274 369.331 63.8502 373.667 63.8502C378.003 63.8502 388.12 63.1274 388.12 47.2285V27.8195C388.12 12.0236 378.003 11.3011 373.667 11.3011Z" fill="#222121"/>
<path d="M190.827 30.1461V44.5996C190.827 73.4037 170.695 74.849 164.913 74.849C159.132 74.849 139 73.4037 139 44.5996V30.1461C139 1.3424 159.132 0 164.913 0C170.695 0 190.827 1.3424 190.827 30.1461ZM164.913 11.1502C160.577 11.1502 150.563 11.8727 150.563 27.6686V47.0776C150.563 62.9764 160.577 63.6992 164.913 63.6992C169.249 63.6992 179.367 62.9764 179.367 47.0776V27.6685C179.367 11.8726 169.249 11.1502 164.913 11.1502Z" fill="#222121"/>
<path d="M464.979 51.5641C464.979 72.9347 444.847 73.5543 439.066 73.5543H416.456V1.59622H435.556C441.337 1.59622 461.469 2.11217 461.469 21.4183C461.469 27.1995 459.61 31.2261 456.926 34.1167C461.469 37.3171 464.979 42.5824 464.979 51.5641ZM428.019 29.5742H437.207C441.544 29.5742 449.906 29.1612 449.906 21.4183C449.906 13.6751 441.544 13.0558 437.207 13.0558H428.019V29.5742ZM453.519 51.5641C453.519 41.9628 445.157 41.1371 440.821 41.1371H428.019V61.9914H440.821C445.157 61.9914 453.519 61.1653 453.519 51.5641Z" fill="#222121"/>
<path d="M531.061 30.2971V44.7506C531.061 73.5547 510.929 75 505.148 75C499.366 75 479.234 73.5547 479.234 44.7506V30.2971C479.234 1.49337 499.366 0.15097 505.148 0.15097C510.929 0.15097 531.061 1.49337 531.061 30.2971ZM505.148 11.3011C500.811 11.3011 490.797 12.0236 490.797 27.8195V47.2285C490.797 63.1274 500.811 63.8502 505.148 63.8502C509.483 63.8502 519.601 63.1274 519.601 47.2285V27.8195C519.601 12.0236 509.483 11.3011 505.148 11.3011Z" fill="#222121"/>
<path d="M573.644 1.59622V73.5542H562.185V13.0558H542.465V1.59622C542.465 1.59622 573.644 1.59622 573.644 1.59622Z" fill="#222121"/>
<path d="M581.8 7.37748C581.8 4.17706 584.381 1.59622 587.581 1.59622C590.782 1.59622 593.363 4.17706 593.363 7.37748C593.363 10.5779 590.782 13.1591 587.581 13.1591C584.381 13.1591 581.8 10.5779 581.8 7.37748Z" fill="#5A6EF8"/>
</svg>
