<svg width="208" height="361" viewBox="0 0 208 361" fill="none" xmlns="http://www.w3.org/2000/svg">
<path d="M197.077 109.108C197.077 158.069 157.387 197.759 108.426 197.759C59.4661 197.759 19.7759 158.069 19.7759 109.108C19.7759 60.148 59.4661 20.4578 108.426 20.4578C157.387 20.4578 197.077 60.148 197.077 109.108ZM37.526 109.108C37.526 148.266 69.2692 180.009 108.426 180.009C147.584 180.009 179.327 148.266 179.327 109.108C179.327 69.9512 147.584 38.208 108.426 38.208C69.2692 38.208 37.526 69.9512 37.526 109.108Z" fill="#303456"/>
<path d="M106.722 49.5973V108.465C106.722 110.123 108.623 111.061 109.938 110.052L156.149 74.6239C157.075 73.9142 157.199 72.5651 156.413 71.703C142.152 56.0591 130.482 46.6087 108.585 47.6249C107.537 47.6736 106.722 48.548 106.722 49.5973Z" fill="#303456"/>
<rect x="70.9205" width="71.6024" height="13.6385" rx="2" fill="#303456"/>
<rect x="101.607" y="13.6385" width="13.6385" height="10.2289" fill="#303456"/>
<path d="M45.644 360.086C35.4603 360.086 0 357.54 0 306.805V281.528C0 230.793 35.4603 228.247 45.644 228.247C54.5546 228.247 83.2863 230.248 89.8324 265.526H69.8293C65.6471 248.796 52.0082 247.887 45.644 247.887C38.0061 247.887 20.3669 249.159 20.3669 276.982V311.351C20.3669 339.174 38.0061 340.447 45.644 340.447C52.0082 340.447 65.6471 339.537 69.8293 322.808H90.0143C83.2863 358.086 54.5546 360.086 45.644 360.086Z" fill="#222121"/>
<circle cx="197" cy="347" r="11" fill="#5A6EF8"/>
<path d="M162.949 320.261C160.221 320.625 157.856 320.807 156.22 320.807H136.762V357.54H116.396V230.792H156.22C166.404 230.792 201.864 234.247 201.864 275.708C201.864 297.712 192.043 308.987 181.132 314.806L196.5 331.5C196.5 331.5 192.051 331 187 334C181.949 337 181.132 341.5 181.132 341.5L162.949 320.261ZM159.311 300.44C166.949 300.44 181.679 293.893 181.679 275.708C181.679 257.523 166.949 250.977 159.311 250.977H136.762V300.44H159.311Z" fill="#222121"/>
</svg>
