<svg width="63" height="63" viewBox="0 0 63 63" fill="none" xmlns="http://www.w3.org/2000/svg">
<g clip-path="url(#clip0)">
<path d="M46.875 26.0417H43.5938C42.6195 22.2682 40.6063 18.8437 37.7829 16.1573C34.9596 13.4709 31.4394 11.6302 27.6222 10.8445C23.805 10.0588 19.844 10.3595 16.1892 11.7125C12.5344 13.0655 9.3324 15.4165 6.94701 18.4984C4.56163 21.5803 3.08852 25.2695 2.69507 29.1468C2.30163 33.0241 3.00362 36.934 4.72129 40.4322C6.43896 43.9305 9.10343 46.8768 12.4119 48.9364C15.7204 50.996 19.5403 52.0863 23.4375 52.0834H46.875C50.3283 52.0834 53.6402 50.7115 56.0821 48.2696C58.524 45.8278 59.8958 42.5159 59.8958 39.0625C59.8958 35.6092 58.524 32.2973 56.0821 29.8554C53.6402 27.4135 50.3283 26.0417 46.875 26.0417Z" stroke="#5AD2F8" stroke-width="5" stroke-linecap="round" stroke-linejoin="round"/>
</g>
<defs>
<clipPath id="clip0">
<rect width="62.5" height="62.5" fill="white"/>
</clipPath>
</defs>
</svg>
