<svg width="26" height="26" viewBox="0 0 26 26" fill="none" xmlns="http://www.w3.org/2000/svg">
<path d="M11.9166 4.33331H4.33329C3.75866 4.33331 3.20756 4.56159 2.80123 4.96791C2.3949 5.37424 2.16663 5.92534 2.16663 6.49998V21.6666C2.16663 22.2413 2.3949 22.7924 2.80123 23.1987C3.20756 23.605 3.75866 23.8333 4.33329 23.8333H19.5C20.0746 23.8333 20.6257 23.605 21.032 23.1987C21.4384 22.7924 21.6666 22.2413 21.6666 21.6666V14.0833" stroke="#5A6EF8" stroke-width="2" stroke-linecap="round" stroke-linejoin="round"/>
<path d="M20.0416 2.70831C20.4726 2.27734 21.0571 2.03522 21.6666 2.03522C22.2761 2.03522 22.8606 2.27734 23.2916 2.70831C23.7226 3.13929 23.9647 3.72382 23.9647 4.33331C23.9647 4.94281 23.7226 5.52734 23.2916 5.95831L13 16.25L8.66663 17.3333L9.74996 13L20.0416 2.70831Z" stroke="#5A6EF8" stroke-width="2" stroke-linecap="round" stroke-linejoin="round"/>
</svg>
