<svg width="50" height="50" viewBox="0 0 50 50" fill="none" xmlns="http://www.w3.org/2000/svg">
<path d="M23.2449 17.7652V23.2448H17.7653C16.7959 23.2448 16.0102 24.0305 16.0102 24.9999C16.0102 25.9693 16.7959 26.755 17.7653 26.755H23.2449V32.2346C23.2449 33.204 24.0306 33.9897 25 33.9897C25.9694 33.9897 26.7449 33.204 26.7449 32.2346V26.755H32.2245C33.1939 26.755 33.9796 25.9693 33.9796 24.9999C33.9796 24.0305 33.1939 23.2448 32.2245 23.2448H26.7449V17.7652C26.7449 16.7958 25.9592 16.0101 25 16.0101C24.0408 16.0101 23.2449 16.7958 23.2449 17.7652Z" fill="white"/>
<path d="M7.31633 7.31633C2.60204 12.0408 0 18.3163 0 25C0 31.6837 2.60204 37.9592 7.32653 42.6837C12.0408 47.398 18.3265 50 25 50C31.6735 50 37.9592 47.398 42.6837 42.6735C47.398 37.9592 50 31.6735 50 25C50 18.3265 47.398 12.0408 42.6735 7.31633C37.9592 2.60204 31.6837 0 25 0C18.3265 0 12.0408 2.60204 7.31633 7.31633ZM46.5 25C46.5 30.7449 44.2653 36.1429 40.2041 40.2041C36.1429 44.2653 30.7449 46.5 25 46.5C19.2551 46.5 13.8571 44.2653 9.79592 40.2041C5.73469 36.1429 3.5 30.7449 3.5 25C3.5 19.2551 5.73469 13.8571 9.79592 9.79592C13.8571 5.73469 19.2551 3.5 25 3.5C30.7449 3.5 36.1429 5.73469 40.2041 9.79592C44.2653 13.8571 46.5 19.2551 46.5 25Z" fill="white"/>
</svg>
