<svg width="39" height="30" viewBox="0 0 39 30" fill="none" xmlns="http://www.w3.org/2000/svg">
<g clip-path="url(#clip0)">
<path d="M32.7843 2.67153C30.3159 1.53895 27.669 0.704515 24.9015 0.226599C24.8511 0.217375 24.8007 0.240426 24.7748 0.286527C24.4343 0.891988 24.0573 1.68186 23.7932 2.3027C20.8166 1.85706 17.8552 1.85706 14.9396 2.3027C14.6755 1.66806 14.2847 0.891988 13.9427 0.286527C13.9168 0.241964 13.8664 0.218913 13.816 0.226599C11.05 0.702988 8.40311 1.53742 5.93324 2.67153C5.91185 2.68075 5.89353 2.69613 5.88136 2.7161C0.8607 10.2169 -0.51467 17.5333 0.160041 24.759C0.163094 24.7943 0.182938 24.8281 0.210415 24.8496C3.52291 27.2822 6.73162 28.759 9.88075 29.7379C9.93115 29.7533 9.98455 29.7349 10.0166 29.6934C10.7615 28.6761 11.4256 27.6034 11.9949 26.4754C12.0285 26.4094 11.9965 26.331 11.9278 26.3049C10.8745 25.9053 9.87158 25.4182 8.90684 24.865C8.83053 24.8204 8.82442 24.7113 8.89462 24.659C9.09764 24.5069 9.30071 24.3486 9.49456 24.1888C9.52964 24.1596 9.57851 24.1534 9.61975 24.1719C15.9577 27.0656 22.8193 27.0656 29.0825 24.1719C29.1237 24.1519 29.1726 24.1581 29.2092 24.1873C29.4031 24.3471 29.6061 24.5069 29.8107 24.659C29.8809 24.7113 29.8763 24.8204 29.8 24.865C28.8352 25.4289 27.8323 25.9053 26.7775 26.3034C26.7088 26.3295 26.6783 26.4094 26.7119 26.4754C27.2935 27.6019 27.9575 28.6745 28.6887 29.6918C28.7192 29.7349 28.7741 29.7533 28.8245 29.7379C31.9889 28.759 35.1976 27.2822 38.5101 24.8496C38.5391 24.8281 38.5575 24.7958 38.5605 24.7605C39.368 16.4068 37.208 9.15039 32.8346 2.71762C32.8239 2.69613 32.8057 2.68075 32.7843 2.67153ZM12.9414 20.3593C11.0332 20.3593 9.46096 18.6074 9.46096 16.456C9.46096 14.3046 11.0027 12.5527 12.9414 12.5527C14.8953 12.5527 16.4523 14.3199 16.4218 16.456C16.4218 18.6074 14.88 20.3593 12.9414 20.3593ZM25.8097 20.3593C23.9016 20.3593 22.3293 18.6074 22.3293 16.456C22.3293 14.3046 23.8711 12.5527 25.8097 12.5527C27.7636 12.5527 29.3206 14.3199 29.2901 16.456C29.2901 18.6074 27.7636 20.3593 25.8097 20.3593Z" fill="#C9C9C9"/>
</g>
<defs>
<clipPath id="clip0">
<rect width="38.7273" height="30" fill="white"/>
</clipPath>
</defs>
</svg>
