<svg width="37" height="30" viewBox="0 0 37 30" fill="none" xmlns="http://www.w3.org/2000/svg">
<g clip-path="url(#clip0)">
<path d="M36.8965 3.55123C35.5391 4.15369 34.08 4.56068 32.549 4.74378C34.1118 3.8065 35.3122 2.32233 35.8773 0.55373C34.4145 1.42179 32.7946 2.05192 31.0702 2.39155C29.6895 0.919555 27.7222 0 25.5449 0C21.3646 0 17.975 3.39084 17.975 7.57332C17.975 8.16692 18.042 8.74501 18.1712 9.29929C11.8799 8.98348 6.30225 5.96825 2.56868 1.38616C1.91709 2.50469 1.54369 3.80558 1.54369 5.19359C1.54369 7.82121 2.88009 10.1393 4.91124 11.4974C3.67041 11.4581 2.50319 11.1174 1.48263 10.5502C1.48177 10.5817 1.48177 10.6135 1.48177 10.6454C1.48177 14.3148 4.0911 17.3756 7.55403 18.0718C6.91885 18.2449 6.2501 18.3374 5.55976 18.3374C5.07199 18.3374 4.59788 18.2898 4.13556 18.2016C5.09893 21.2103 7.8944 23.3999 11.207 23.4609C8.61628 25.4923 5.35241 26.7031 1.80572 26.7031C1.19471 26.7031 0.592191 26.6671 0 26.5972C3.35003 28.7462 7.32896 30 11.6038 30C25.5273 30 33.1415 18.4598 33.1415 8.45135C33.1415 8.12299 33.1341 7.79647 33.1195 7.47143C34.5983 6.40385 35.8816 5.0701 36.8964 3.55123H36.8965Z" fill="#C9C9C9"/>
</g>
<defs>
<clipPath id="clip0">
<rect width="36.8965" height="30" fill="white"/>
</clipPath>
</defs>
</svg>
