<svg width="238" height="30" viewBox="0 0 238 30" fill="none" xmlns="http://www.w3.org/2000/svg">
<path d="M10.3654 30C8.05274 30 0 29.4219 0 17.9002V12.1602C0 0.63866 8.05274 0.0603943 10.3654 0.0603943C12.3889 0.0603943 18.9136 0.514747 20.4002 8.52617H15.8576C14.9079 4.72684 11.8106 4.52046 10.3654 4.52046C8.63087 4.52046 4.62515 4.80945 4.62515 11.1278V18.9327C4.62515 25.2509 8.63087 25.5401 10.3654 25.5401C11.8106 25.5401 14.9079 25.3336 15.8576 21.5344H20.4415C18.9136 29.5458 12.3889 30 10.3654 30Z" fill="white"/>
<path d="M37.0043 20.9561C36.3849 21.0387 35.8478 21.08 35.4762 21.08H31.0576V29.4217H26.4326V0.638489H35.4762C37.789 0.638489 45.8416 1.423 45.8416 10.8385C45.8416 15.8354 43.6114 18.3957 41.1337 19.7172L46.9152 29.4217H42.0424L37.0043 20.9561ZM36.1782 16.4548C37.9127 16.4548 41.2577 14.9681 41.2577 10.8385C41.2577 6.70888 37.9127 5.22233 36.1782 5.22233H31.0576V16.4548C31.0576 16.4548 36.1782 16.4548 36.1782 16.4548Z" fill="white"/>
<path d="M106.199 12.1188V22.7319H101.615V11.1278C101.615 4.80945 97.5684 4.52046 95.8339 4.52046C94.0994 4.52046 90.0938 4.80945 90.0938 11.1278V29.4219H85.4685V12.1188C85.4685 0.597356 93.5214 0.0603943 95.8339 0.0603943C98.1464 0.0603943 106.199 0.597356 106.199 12.1188Z" fill="white"/>
<path d="M101.574 27.1092C101.574 25.8291 102.606 24.7967 103.887 24.7967C105.167 24.7967 106.199 25.8291 106.199 27.1092C106.199 28.3895 105.167 29.4219 103.887 29.4219C102.606 29.4219 101.574 28.3895 101.574 27.1092Z" fill="#5A6EF8"/>
<path d="M123.836 20.9561C123.217 21.0387 122.68 21.08 122.308 21.08H117.889V29.4217H113.264V0.638489H122.308C124.621 0.638489 132.673 1.423 132.673 10.8385C132.673 15.8354 130.443 18.3957 127.965 19.7172L133.747 29.4217H128.874L123.836 20.9561ZM123.01 16.4548C124.745 16.4548 128.09 14.9681 128.09 10.8385C128.09 6.70888 124.745 5.22233 123.01 5.22233H117.889V16.4548C117.889 16.4548 123.01 16.4548 123.01 16.4548Z" fill="white"/>
<path d="M159.832 12.1188V17.9002C159.832 29.4219 151.779 30 149.467 30C147.154 30 139.101 29.4219 139.101 17.9002V12.1188C139.101 0.597355 147.154 0.0603943 149.467 0.0603943C151.779 0.0603943 159.832 0.597355 159.832 12.1188ZM149.467 4.52046C147.732 4.52046 143.727 4.80946 143.727 11.1278V18.8914C143.727 25.2509 147.732 25.5401 149.467 25.5401C151.201 25.5401 155.248 25.2509 155.248 18.8914V11.1278C155.248 4.80945 151.201 4.52046 149.467 4.52046Z" fill="white"/>
<path d="M76.3307 12.0585V17.8399C76.3307 29.3615 68.2779 29.9396 65.9654 29.9396C63.6529 29.9396 55.6 29.3615 55.6 17.8399V12.0585C55.6 0.536961 63.6529 0 65.9654 0C68.2779 0 76.3307 0.536961 76.3307 12.0585ZM65.9654 4.46007C64.2308 4.46007 60.2253 4.74907 60.2253 11.0674V18.831C60.2253 25.1906 64.2308 25.4797 65.9654 25.4797C67.6996 25.4797 71.7466 25.1906 71.7466 18.831V11.0674C71.7466 4.74906 67.6996 4.46007 65.9654 4.46007Z" fill="white"/>
<path d="M185.992 20.6256C185.992 29.1739 177.939 29.4217 175.626 29.4217H166.582V0.638489H174.222C176.535 0.638489 184.588 0.844868 184.588 8.56731C184.588 10.8798 183.844 12.4904 182.77 13.6467C184.588 14.9268 185.992 17.033 185.992 20.6256ZM171.208 11.8297H174.883C176.617 11.8297 179.962 11.6645 179.962 8.56731C179.962 5.47002 176.617 5.22233 174.883 5.22233H171.208V11.8297ZM181.408 20.6256C181.408 16.7851 178.063 16.4548 176.328 16.4548H171.208V24.7966H176.328C178.063 24.7966 181.408 24.4661 181.408 20.6256Z" fill="white"/>
<path d="M212.424 12.1188V17.9002C212.424 29.4219 204.372 30 202.059 30C199.747 30 191.694 29.4219 191.694 17.9002V12.1188C191.694 0.597355 199.747 0.0603943 202.059 0.0603943C204.372 0.0603943 212.424 0.597355 212.424 12.1188ZM202.059 4.52046C200.325 4.52046 196.319 4.80946 196.319 11.1278V18.8914C196.319 25.2509 200.325 25.5401 202.059 25.5401C203.793 25.5401 207.84 25.2509 207.84 18.8914V11.1278C207.84 4.80945 203.793 4.52046 202.059 4.52046Z" fill="white"/>
<path d="M229.458 0.638489V29.4217H224.874V5.22233H216.986V0.638489C216.986 0.638489 229.458 0.638489 229.458 0.638489Z" fill="white"/>
<path d="M232.72 2.95099C232.72 1.67083 233.753 0.638489 235.033 0.638489C236.313 0.638489 237.345 1.67083 237.345 2.95099C237.345 4.23116 236.313 5.26364 235.033 5.26364C233.753 5.26364 232.72 4.23116 232.72 2.95099Z" fill="#5A6EF8"/>
</svg>
