<svg width="85" height="54" viewBox="0 0 85 54" fill="none" xmlns="http://www.w3.org/2000/svg">
<path d="M18.6526 53.8766C14.491 53.8766 0 52.8363 0 32.103V21.7736C0 1.0406 14.491 0 18.6526 0C22.2939 0 34.0353 0.817612 36.7103 15.2343H28.536C26.8269 8.39732 21.2533 8.02593 18.6526 8.02593C15.5313 8.02593 8.323 8.54598 8.323 19.9159V33.9609C8.323 45.3306 15.5313 45.8509 18.6526 45.8509C21.2533 45.8509 26.8269 45.4793 28.536 38.6426H36.7847C34.0353 53.0593 22.2939 53.8766 18.6526 53.8766Z" fill="white"/>
<circle cx="80.5048" cy="48.5289" r="4.49519" fill="#5A6EF8"/>
<path d="M66.5896 37.602C65.475 37.7506 64.5085 37.8249 63.8398 37.8249H55.8884V52.836H47.5656V1.04028H63.8397C68.0016 1.04028 82.4924 2.45202 82.4924 19.3953C82.4924 28.3873 78.4791 32.9946 74.0204 35.3726L80.3005 42.1948C80.3005 42.1948 78.4826 41.9905 76.4183 43.2164C74.354 44.4424 74.0204 46.2813 74.0204 46.2813L66.5896 37.602ZM65.1031 29.502C68.2244 29.502 74.2437 26.8266 74.2437 19.3953C74.2437 11.964 68.2244 9.28895 65.1031 9.28895H55.8884V29.502H65.1031Z" fill="white"/>
</svg>
